<svg width="24" height="24" viewBox="0 0 24 24" fill="none" xmlns="http://www.w3.org/2000/svg">
<path d="M14.5 19H12.5C9.67099 19 8.25699 19 7.37899 18.121C6.49899 17.243 6.49899 15.828 6.49899 13V8C6.49899 5.172 6.49899 3.757 7.37899 2.879C8.25599 2 9.66999 2 12.499 2H13.843C14.661 2 15.069 2 15.437 2.152C15.804 2.304 16.093 2.594 16.671 3.172L19.328 5.828C19.906 6.406 20.195 6.696 20.348 7.063C20.5 7.431 20.5 7.839 20.5 8.657V13C20.5 15.828 20.5 17.243 19.621 18.121C18.743 19 17.328 19 14.5 19Z" stroke="currentColor" stroke-width="1.5" stroke-linecap="round" stroke-linejoin="round"/>
<path d="M15 2.5V3.5C15 5.386 15 6.328 15.586 6.914C16.171 7.5 17.114 7.5 19 7.5H20M6.5 5C5.70435 5 4.94129 5.31607 4.37868 5.87868C3.81607 6.44129 3.5 7.20435 3.5 8V16C3.5 18.828 3.5 20.243 4.378 21.121C5.257 22 6.671 22 9.5 22H14.5C15.2956 22 16.0587 21.6839 16.6213 21.1213C17.1839 20.5587 17.5 19.7956 17.5 19M10 11H14M10 15H17" stroke="currentColor" stroke-width="1.5" stroke-linecap="round" stroke-linejoin="round"/>
</svg>
