<svg width="24" height="24" viewBox="0 0 24 24" fill="none" xmlns="http://www.w3.org/2000/svg">
<path d="M20 14V10.657C20 9.839 20 9.431 19.848 9.063C19.696 8.696 19.407 8.406 18.828 7.828L14.092 3.092C13.593 2.593 13.344 2.344 13.034 2.196C12.9698 2.16518 12.9041 2.13781 12.837 2.114C12.514 2 12.161 2 11.456 2C8.211 2 6.588 2 5.489 2.886C5.26709 3.06494 5.06494 3.26709 4.886 3.489C4 4.59 4 6.211 4 9.456V14C4 17.771 4 19.657 5.172 20.828C6.344 21.999 8.229 22 12 22M13 2.5V3C13 5.828 13 7.243 13.879 8.121C14.757 9 16.172 9 19 9H19.5" stroke="currentColor" stroke-width="1.5" stroke-linecap="round" stroke-linejoin="round"/>
<path d="M17 22C17.607 21.41 20 19.84 20 19C20 18.16 17.607 16.59 17 16M19 19H12" stroke="currentColor" stroke-width="1.5" stroke-linecap="round" stroke-linejoin="round"/>
</svg>
