<svg width="24" height="24" viewBox="0 0 24 24" fill="none" xmlns="http://www.w3.org/2000/svg">
<path d="M20 13V10.657C20 9.839 20 9.431 19.848 9.063C19.696 8.696 19.407 8.406 18.828 7.828L14.092 3.092C13.593 2.593 13.344 2.344 13.034 2.196C12.9698 2.16518 12.9041 2.13781 12.837 2.114C12.514 2 12.161 2 11.456 2C8.211 2 6.588 2 5.489 2.886C5.26709 3.06494 5.06494 3.26709 4.886 3.489C4 4.59 4 6.211 4 9.456V14C4 17.771 4 19.657 5.172 20.828C6.235 21.892 7.886 21.99 11 22M13 2.5V3C13 5.828 13 7.243 13.879 8.121C14.757 9 16.172 9 19 9H19.5" stroke="currentColor" stroke-width="1.5" stroke-linecap="round" stroke-linejoin="round"/>
<path d="M20 22.0001L17.853 19.8531M17.853 19.8531C18.4957 19.2101 18.8568 18.3382 18.857 17.4291C18.8571 16.6357 18.5821 15.8669 18.0788 15.2536C17.5756 14.6403 16.8752 14.2205 16.0971 14.0657C15.319 13.9109 14.5113 14.0307 13.8116 14.4046C13.112 14.7786 12.5636 15.3836 12.26 16.1166C11.9564 16.8496 11.9164 17.6651 12.1467 18.4243C12.3771 19.1835 12.8635 19.8393 13.5232 20.28C14.1829 20.7207 14.975 20.9191 15.7645 20.8412C16.554 20.7634 17.2921 20.4142 17.853 19.8531Z" stroke="currentColor" stroke-width="1.5" stroke-linecap="round" stroke-linejoin="round"/>
</svg>
